<?xml version="1.0" standalone="no"?>
<!DOCTYPE svg PUBLIC "-//W3C//DTD SVG 20010904//EN"
 "http://www.w3.org/TR/2001/REC-SVG-20010904/DTD/svg10.dtd">
<svg version="1.0" xmlns="http://www.w3.org/2000/svg"
 width="500.000000pt" height="500.000000pt" viewBox="0 0 500.000000 500.000000"
 preserveAspectRatio="xMidYMid meet">

<g transform="translate(0.000000,500.000000) scale(0.100000,-0.100000)"
fill="#000000" stroke="none">
<path d="M3227 2723 c-4 -3 -7 -91 -7 -195 l0 -188 45 0 c25 0 45 5 45 10 0 6
13 4 31 -5 76 -40 169 36 169 137 -1 43 -32 111 -61 132 -30 21 -97 21 -121
-1 -17 -15 -18 -13 -18 50 l0 67 -38 0 c-21 0 -42 -3 -45 -7z m173 -183 c42
-42 15 -130 -40 -130 -35 0 -60 32 -60 77 0 37 29 73 60 73 11 0 29 -9 40 -20z"/>
<path d="M2150 2676 c0 -35 -4 -45 -20 -49 -15 -4 -20 -14 -20 -36 0 -24 4
-31 20 -31 19 0 20 -7 20 -90 0 -112 13 -130 90 -130 l50 0 0 35 c0 31 -3 35
-25 35 -24 0 -25 2 -25 75 0 74 0 75 26 75 23 0 25 3 22 33 -2 24 -8 33 -25
35 -20 3 -23 9 -23 48 l0 44 -45 0 -45 0 0 -44z"/>
<path d="M3627 2652 c-21 -4 -23 -22 -3 -22 8 0 17 -6 20 -12 5 -10 7 -10 12
0 3 6 21 12 40 12 21 0 34 5 34 13 0 11 -61 17 -103 9z"/>
<path d="M1190 2485 l0 -145 40 0 40 0 0 99 c0 109 8 125 57 119 l28 -3 3
-107 3 -108 44 0 45 0 0 100 c0 109 -14 161 -48 179 -31 16 -93 13 -114 -6
-17 -15 -18 -15 -18 0 0 13 -9 17 -40 17 l-40 0 0 -145z"/>
<path d="M1580 2622 c-80 -36 -113 -132 -72 -212 23 -47 71 -72 133 -72 58 0
93 20 122 71 l19 31 -45 0 c-27 0 -49 -6 -57 -15 -17 -21 -63 -19 -83 3 -33
36 -22 42 84 42 l102 0 -6 40 c-7 54 -31 88 -72 106 -36 15 -99 18 -125 6z
m91 -62 c36 -20 22 -37 -30 -39 -57 -2 -71 11 -39 33 26 19 42 20 69 6z"/>
<path d="M1810 2622 c0 -5 20 -37 44 -72 25 -35 42 -69 39 -74 -4 -6 -24 -37
-45 -68 -21 -31 -38 -59 -38 -62 0 -4 20 -6 45 -6 41 0 46 3 67 40 13 22 26
40 30 40 4 0 17 -18 29 -40 22 -38 25 -40 71 -40 l48 0 -45 67 c-25 37 -45 72
-45 78 0 5 21 39 46 75 l45 65 -41 3 c-46 4 -64 -7 -86 -50 -8 -15 -18 -28
-22 -28 -5 0 -18 18 -31 40 -21 37 -25 40 -67 40 -24 0 -44 -4 -44 -8z"/>
<path d="M2440 2628 c0 -2 20 -66 44 -143 l44 -140 40 -3 c40 -3 41 -2 51 35
5 21 15 58 22 83 l12 45 20 -83 19 -83 41 3 41 3 43 135 c24 74 43 139 43 143
0 5 -19 7 -42 5 l-43 -3 -19 -72 c-10 -40 -22 -73 -26 -73 -4 0 -13 26 -20 58
-18 83 -26 94 -63 90 -31 -3 -33 -6 -53 -83 l-21 -80 -15 55 c-9 30 -19 67
-22 83 -6 24 -10 27 -51 27 -25 0 -45 -1 -45 -2z"/>
<path d="M2953 2610 c-43 -26 -63 -68 -63 -134 0 -48 4 -60 31 -91 70 -79 197
-66 244 26 l16 29 -45 0 c-26 0 -48 -6 -56 -15 -24 -29 -100 -9 -100 26 0 5
45 9 100 9 l100 0 0 30 c0 48 -26 98 -62 120 -44 26 -122 27 -165 0z m118 -60
l24 -19 -58 -1 c-59 0 -69 12 -23 30 30 12 31 12 57 -10z"/>
<path d="M3645 2581 c-14 -46 28 -71 45 -25 6 14 15 22 20 19 8 -5 7 -11 -1
-21 -14 -17 -3 -32 12 -17 16 16 7 57 -13 61 -12 2 -21 -6 -28 -22 -12 -33
-24 -34 -16 -1 7 29 -10 35 -19 6z"/>
<path d="M3663 2505 c-25 -18 -30 -44 -11 -63 16 -16 53 -15 68 2 14 18 10 58
-7 64 -9 2 -11 -5 -7 -27 4 -19 2 -31 -4 -31 -6 0 -12 16 -14 35 -3 35 -4 35
-25 20z m14 -34 c0 -11 -5 -17 -9 -15 -11 7 -10 34 1 34 6 0 9 -9 8 -19z"/>
<path d="M3658 2410 c-10 -6 -16 -22 -16 -40 1 -29 3 -30 45 -30 50 0 59 17
11 22 -21 2 -33 8 -33 18 0 10 12 16 33 18 17 2 32 7 32 13 0 12 -50 11 -72
-1z"/>
</g>
</svg>
